<svg aria-hidden="true" style="position: absolute; width: 0; height: 0; overflow: hidden;" version="1.1" xmlns="http://www.w3.org/2000/svg" xmlns:xlink="http://www.w3.org/1999/xlink">
<defs>
<symbol id="icon-telegram" viewBox="0 0 32 32">
<path fill="#2ca5e0" style="fill: var(--color1, #2ca5e0)" d="M31.88 5.053l-4.813 22.733c-0.333 1.613-1.307 2-2.667 1.253l-7.333-5.427-3.547 3.427c-0.4 0.4-0.733 0.747-1.467 0.747-0.96 0-0.8-0.36-1.12-1.267l-2.533-8.253-7.267-2.267c-1.573-0.467-1.587-1.547 0.347-2.333l28.347-10.933c1.293-0.573 2.533 0.32 2.053 2.32z"></path>
</symbol>
<symbol id="icon-whatsapp" viewBox="0 0 32 32">
<path fill="#25d366" style="fill: var(--color2, #25d366)" d="M23.331 19.176c-0.401-0.2-2.356-1.156-2.72-1.288-0.364-0.135-0.631-0.2-0.897 0.2-0.263 0.393-1.028 1.285-1.259 1.549-0.233 0.26-0.465 0.28-0.861 0.1-0.4-0.2-1.684-0.62-3.204-1.98-1.184-1.060-1.979-2.36-2.213-2.76-0.232-0.4-0.025-0.62 0.173-0.82 0.181-0.18 0.401-0.46 0.601-0.697 0.195-0.241 0.259-0.401 0.396-0.661 0.133-0.28 0.065-0.5-0.033-0.699-0.1-0.2-0.896-2.16-1.229-2.941-0.32-0.779-0.649-0.68-0.896-0.68-0.229-0.020-0.495-0.020-0.761-0.020s-0.697 0.099-1.063 0.479c-0.364 0.4-1.393 1.36-1.393 3.3s1.427 3.82 1.625 4.1c0.199 0.26 2.807 4.26 6.8 5.98 0.952 0.4 1.693 0.64 2.272 0.839 0.952 0.303 1.82 0.26 2.507 0.161 0.765-0.121 2.356-0.961 2.688-1.901 0.34-0.94 0.34-1.72 0.24-1.9-0.099-0.18-0.36-0.28-0.76-0.46zM16.081 29h-0.021c-2.36 0-4.699-0.64-6.74-1.84l-0.48-0.285-5 1.3 1.34-4.86-0.319-0.5c-1.32-2.101-2.021-4.521-2.021-7.013 0-7.26 5.94-13.18 13.256-13.18 3.539 0 6.86 1.38 9.361 3.88 2.5 2.479 3.879 5.8 3.879 9.32-0.005 7.259-5.947 13.18-13.247 13.18zM27.36 4.599c-3.040-2.939-7.040-4.599-11.3-4.599-8.776 0-15.921 7.112-15.925 15.857 0 2.795 0.732 5.52 2.127 7.927l-2.261 8.216 8.447-2.203c2.328 1.257 4.947 1.925 7.613 1.929h0.008c8.78 0 15.928-7.115 15.932-15.861 0-4.235-1.653-8.22-4.66-11.215z"></path>
</symbol>
<symbol id="icon-arrow-left" viewBox="0 0 24 24">
<path d="M12.707 18.293l-5.293-5.293h11.586c0.552 0 1-0.448 1-1s-0.448-1-1-1h-11.586l5.293-5.293c0.391-0.391 0.391-1.024 0-1.414s-1.024-0.391-1.414 0l-7 7c-0.096 0.096-0.168 0.206-0.217 0.324-0.051 0.122-0.076 0.253-0.076 0.383 0 0.256 0.098 0.512 0.293 0.707l7 7c0.391 0.391 1.024 0.391 1.414 0s0.391-1.024 0-1.414z"></path>
</symbol>
<symbol id="icon-arrow-right" viewBox="0 0 24 24">
<path d="M11.293 5.707l5.293 5.293h-11.586c-0.552 0-1 0.448-1 1s0.448 1 1 1h11.586l-5.293 5.293c-0.391 0.391-0.391 1.024 0 1.414s1.024 0.391 1.414 0l7-7c0.092-0.092 0.166-0.202 0.217-0.324 0.101-0.245 0.101-0.521 0-0.766-0.049-0.118-0.121-0.228-0.217-0.324l-7-7c-0.391-0.391-1.024-0.391-1.414 0s-0.391 1.024 0 1.414z"></path>
</symbol>
<symbol id="icon-arrow-up" viewBox="0 0 24 24">
<path d="M5.707 12.707l5.293-5.293v11.586c0 0.552 0.448 1 1 1s1-0.448 1-1v-11.586l5.293 5.293c0.391 0.391 1.024 0.391 1.414 0s0.391-1.024 0-1.414l-7-7c-0.092-0.092-0.202-0.166-0.324-0.217s-0.253-0.076-0.383-0.076c-0.256 0-0.512 0.098-0.707 0.293l-7 7c-0.391 0.391-0.391 1.024 0 1.414s1.024 0.391 1.414 0z"></path>
</symbol>
<symbol id="icon-menu" viewBox="0 0 24 24">
<path d="M3 13h18c0.552 0 1-0.448 1-1s-0.448-1-1-1h-18c-0.552 0-1 0.448-1 1s0.448 1 1 1zM3 7h18c0.552 0 1-0.448 1-1s-0.448-1-1-1h-18c-0.552 0-1 0.448-1 1s0.448 1 1 1zM3 19h18c0.552 0 1-0.448 1-1s-0.448-1-1-1h-18c-0.552 0-1 0.448-1 1s0.448 1 1 1z"></path>
</symbol>
<symbol id="icon-search" viewBox="0 0 24 24">
<path d="M16.041 15.856c-0.034 0.026-0.067 0.055-0.099 0.087s-0.060 0.064-0.087 0.099c-1.258 1.213-2.969 1.958-4.855 1.958-1.933 0-3.682-0.782-4.95-2.050s-2.050-3.017-2.050-4.95 0.782-3.682 2.050-4.95 3.017-2.050 4.95-2.050 3.682 0.782 4.95 2.050 2.050 3.017 2.050 4.95c0 1.886-0.745 3.597-1.959 4.856zM21.707 20.293l-3.675-3.675c1.231-1.54 1.968-3.493 1.968-5.618 0-2.485-1.008-4.736-2.636-6.364s-3.879-2.636-6.364-2.636-4.736 1.008-6.364 2.636-2.636 3.879-2.636 6.364 1.008 4.736 2.636 6.364 3.879 2.636 6.364 2.636c2.125 0 4.078-0.737 5.618-1.968l3.675 3.675c0.391 0.391 1.024 0.391 1.414 0s0.391-1.024 0-1.414z"></path>
</symbol>
<symbol id="icon-shopping-cart" viewBox="0 0 24 24">
<path d="M11 21c0-0.552-0.225-1.053-0.586-1.414s-0.862-0.586-1.414-0.586-1.053 0.225-1.414 0.586-0.586 0.862-0.586 1.414 0.225 1.053 0.586 1.414 0.862 0.586 1.414 0.586 1.053-0.225 1.414-0.586 0.586-0.862 0.586-1.414zM22 21c0-0.552-0.225-1.053-0.586-1.414s-0.862-0.586-1.414-0.586-1.053 0.225-1.414 0.586-0.586 0.862-0.586 1.414 0.225 1.053 0.586 1.414 0.862 0.586 1.414 0.586 1.053-0.225 1.414-0.586 0.586-0.862 0.586-1.414zM7.221 7h14.57l-1.371 7.191c-0.046 0.228-0.166 0.425-0.332 0.568-0.18 0.156-0.413 0.246-0.688 0.241h-9.734c-0.232 0.003-0.451-0.071-0.626-0.203-0.19-0.143-0.329-0.351-0.379-0.603zM1 2h3.18l0.848 4.239c0.108 0.437 0.502 0.761 0.972 0.761h1.221l-0.4-2h-0.821c-0.552 0-1 0.448-1 1 0 0.053 0.004 0.105 0.012 0.155 0.004 0.028 0.010 0.057 0.017 0.084l1.671 8.347c0.149 0.751 0.57 1.383 1.14 1.811 0.521 0.392 1.17 0.613 1.854 0.603h9.706c0.748 0.015 1.455-0.261 1.995-0.727 0.494-0.426 0.848-1.013 0.985-1.683l1.602-8.402c0.103-0.543-0.252-1.066-0.795-1.17-0.065-0.013-0.13-0.019-0.187-0.018h-16.18l-0.84-4.196c-0.094-0.462-0.497-0.804-0.98-0.804h-4c-0.552 0-1 0.448-1 1s0.448 1 1 1z"></path>
</symbol>
<symbol id="icon-user" viewBox="0 0 24 24">
<path d="M21 21v-2c0-1.38-0.561-2.632-1.464-3.536s-2.156-1.464-3.536-1.464h-8c-1.38 0-2.632 0.561-3.536 1.464s-1.464 2.156-1.464 3.536v2c0 0.552 0.448 1 1 1s1-0.448 1-1v-2c0-0.829 0.335-1.577 0.879-2.121s1.292-0.879 2.121-0.879h8c0.829 0 1.577 0.335 2.121 0.879s0.879 1.292 0.879 2.121v2c0 0.552 0.448 1 1 1s1-0.448 1-1zM17 7c0-1.38-0.561-2.632-1.464-3.536s-2.156-1.464-3.536-1.464-2.632 0.561-3.536 1.464-1.464 2.156-1.464 3.536 0.561 2.632 1.464 3.536 2.156 1.464 3.536 1.464 2.632-0.561 3.536-1.464 1.464-2.156 1.464-3.536zM15 7c0 0.829-0.335 1.577-0.879 2.121s-1.292 0.879-2.121 0.879-1.577-0.335-2.121-0.879-0.879-1.292-0.879-2.121 0.335-1.577 0.879-2.121 1.292-0.879 2.121-0.879 1.577 0.335 2.121 0.879 0.879 1.292 0.879 2.121z"></path>
</symbol>
<symbol id="icon-cross" viewBox="0 0 20 20">
<path d="M14.348 14.849c-0.469 0.469-1.229 0.469-1.697 0l-2.651-3.030-2.651 3.029c-0.469 0.469-1.229 0.469-1.697 0-0.469-0.469-0.469-1.229 0-1.697l2.758-3.15-2.759-3.152c-0.469-0.469-0.469-1.228 0-1.697s1.228-0.469 1.697 0l2.652 3.031 2.651-3.031c0.469-0.469 1.228-0.469 1.697 0s0.469 1.229 0 1.697l-2.758 3.152 2.758 3.15c0.469 0.469 0.469 1.229 0 1.698z"></path>
</symbol>
</defs>
</svg>
