<svg aria-hidden="true" style="position:absolute;width:0;height:0" xmlns="http://www.w3.org/2000/svg" overflow="hidden"><defs><symbol id="icon-telegram" viewBox="0 0 32 32"><path fill="var(--color1, #2ca5e0)" d="M31.88 5.053l-4.813 22.733c-.333 1.613-1.307 2-2.667 1.253l-7.333-5.427-3.547 3.427c-.4.4-.733.747-1.467.747-.96 0-.8-.36-1.12-1.267L8.4 18.266l-7.267-2.267c-1.573-.467-1.587-1.547.347-2.333L29.827 2.733c1.293-.573 2.533.32 2.053 2.32z"/></symbol><symbol id="icon-whatsapp" viewBox="0 0 32 32"><path fill="var(--color2, #25d366)" d="M23.331 19.176c-.401-.2-2.356-1.156-2.72-1.288-.364-.135-.631-.2-.897.2-.263.393-1.028 1.285-1.259 1.549-.233.26-.465.28-.861.1-.4-.2-1.684-.62-3.204-1.98-1.184-1.06-1.979-2.36-2.213-2.76-.232-.4-.025-.62.173-.82.181-.18.401-.46.601-.697.195-.241.259-.401.396-.661.133-.28.065-.5-.033-.699-.1-.2-.896-2.16-1.229-2.941-.32-.779-.649-.68-.896-.68-.229-.02-.495-.02-.761-.02s-.697.099-1.063.479c-.364.4-1.393 1.36-1.393 3.3s1.427 3.82 1.625 4.1c.199.26 2.807 4.26 6.8 5.98.952.4 1.693.64 2.272.839.952.303 1.82.26 2.507.161.765-.121 2.356-.961 2.688-1.901.34-.94.34-1.72.24-1.9-.099-.18-.36-.28-.76-.46zM16.081 29h-.021c-2.36 0-4.699-.64-6.74-1.84l-.48-.285-5 1.3 1.34-4.86-.319-.5a13.156 13.156 0 01-2.021-7.013c0-7.26 5.94-13.18 13.256-13.18 3.539 0 6.86 1.38 9.361 3.88 2.5 2.479 3.879 5.8 3.879 9.32-.005 7.259-5.947 13.18-13.247 13.18zM27.36 4.599C24.32 1.66 20.32 0 16.06 0 7.284 0 .139 7.112.135 15.857c0 2.795.732 5.52 2.127 7.927L.001 32l8.447-2.203a16.087 16.087 0 007.613 1.929h.008c8.78 0 15.928-7.115 15.932-15.861 0-4.235-1.653-8.22-4.66-11.215z"/></symbol><symbol id="icon-arrow-left" viewBox="0 0 24 24"><path d="M12.707 18.293L7.414 13H19a1 1 0 000-2H7.414l5.293-5.293a.999.999 0 10-1.414-1.414l-7 7a.998.998 0 000 1.414l7 7a.999.999 0 101.414-1.414z"/></symbol><symbol id="icon-arrow-right" viewBox="0 0 24 24"><path d="M11.293 5.707L16.586 11H5a1 1 0 000 2h11.586l-5.293 5.293a.999.999 0 101.414 1.414l7-7a1.006 1.006 0 000-1.414l-7-7a.999.999 0 10-1.414 1.414z"/></symbol><symbol id="icon-arrow-up" viewBox="0 0 24 24"><path d="M5.707 12.707L11 7.414V19a1 1 0 002 0V7.414l5.293 5.293a.999.999 0 101.414-1.414l-7-7A1.008 1.008 0 0012 4a.997.997 0 00-.707.293l-7 7a.999.999 0 101.414 1.414z"/></symbol><symbol id="icon-menu" viewBox="0 0 24 24"><path d="M3 13h18a1 1 0 000-2H3a1 1 0 000 2zm0-6h18a1 1 0 000-2H3a1 1 0 000 2zm0 12h18a1 1 0 000-2H3a1 1 0 000 2z"/></symbol><symbol id="icon-search" viewBox="0 0 24 24"><path d="M16.041 15.856a.995.995 0 00-.186.186A6.97 6.97 0 0111 18c-1.933 0-3.682-.782-4.95-2.05S4 12.933 4 11s.782-3.682 2.05-4.95S9.067 4 11 4s3.682.782 4.95 2.05S18 9.067 18 11a6.971 6.971 0 01-1.959 4.856zm5.666 4.437l-3.675-3.675A8.967 8.967 0 0020 11c0-2.485-1.008-4.736-2.636-6.364S13.485 2 11 2 6.264 3.008 4.636 4.636 2 8.515 2 11s1.008 4.736 2.636 6.364S8.515 20 11 20a8.967 8.967 0 005.618-1.968l3.675 3.675a.999.999 0 101.414-1.414z"/></symbol><symbol id="icon-shopping-cart" viewBox="0 0 24 24"><path d="M11 21c0-.552-.225-1.053-.586-1.414a1.996 1.996 0 00-2.828 0 1.996 1.996 0 000 2.828 1.996 1.996 0 002.828 0c.361-.361.586-.862.586-1.414zm11 0c0-.552-.225-1.053-.586-1.414a1.996 1.996 0 00-2.828 0 1.996 1.996 0 000 2.828 1.996 1.996 0 002.828 0c.361-.361.586-.862.586-1.414zM7.221 7h14.57l-1.371 7.191A1 1 0 0119.4 15H9.666a1.016 1.016 0 01-.626-.203.99.99 0 01-.379-.603zM1 2h3.18l.848 4.239C5.136 6.676 5.53 7 6 7h1.221l-.4-2H6a1 1 0 00-.971 1.239L6.7 14.586A3.009 3.009 0 009.694 17H19.4a2.97 2.97 0 001.995-.727 3.02 3.02 0 00.985-1.683l1.602-8.402A1 1 0 0023 5H6.82L5.98.804A1 1 0 005 0H1a1 1 0 000 2z"/></symbol><symbol id="icon-user" viewBox="0 0 24 24"><path d="M21 21v-2c0-1.38-.561-2.632-1.464-3.536S17.38 14 16 14H8c-1.38 0-2.632.561-3.536 1.464S3 17.62 3 19v2a1 1 0 002 0v-2c0-.829.335-1.577.879-2.121S7.171 16 8 16h8c.829 0 1.577.335 2.121.879S19 18.171 19 19v2a1 1 0 002 0zM17 7c0-1.38-.561-2.632-1.464-3.536S13.38 2 12 2s-2.632.561-3.536 1.464S7 5.62 7 7s.561 2.632 1.464 3.536S10.62 12 12 12s2.632-.561 3.536-1.464S17 8.38 17 7zm-2 0c0 .829-.335 1.577-.879 2.121S12.829 10 12 10s-1.577-.335-2.121-.879S9 7.829 9 7s.335-1.577.879-2.121S11.171 4 12 4s1.577.335 2.121.879S15 6.171 15 7z"/></symbol><symbol id="icon-cross" viewBox="0 0 20 20"><path d="M14.348 14.849a1.2 1.2 0 01-1.697 0L10 11.819l-2.651 3.029a1.2 1.2 0 11-1.697-1.697l2.758-3.15-2.759-3.152a1.2 1.2 0 111.697-1.697L10 8.183l2.651-3.031a1.2 1.2 0 111.697 1.697l-2.758 3.152 2.758 3.15a1.2 1.2 0 010 1.698z"/></symbol></defs></svg>